<?xml version="1.0" standalone="no"?><!DOCTYPE svg PUBLIC "-//W3C//DTD SVG 1.1//EN" "http://www.w3.org/Graphics/SVG/1.1/DTD/svg11.dtd"><svg class="icon" width="200px" height="200.00px" viewBox="0 0 1024 1024" version="1.1" xmlns="http://www.w3.org/2000/svg"><path d="M490.368 570.304l-73.392-60.272-165.44 216.768c-6.688 8.72-16.544 13.712-27.008 13.712h-67.84C90.816 740.512 64 717.648 64 642.576V193.92c0-48.048 18.208-76.8 48.608-89.968C127.2 97.632 140.096 96 156.688 96h710.176C928.464 96 960 129.36 960 194.416v448.64c0 60.272-29.184 97.92-92.688 97.92h-351.52v114.544h162.896c18.912 0 34.336 16.128 34.336 36.24 0 19.936-15.264 36.24-34.336 36.24H274.288c-18.912 0-34.32-16.128-34.32-36.24 0-19.936 15.248-36.24 34.32-36.24H446.24v-151.248c0-19.952 15.248-36.24 34.32-36.24h378.56c17.296 0 31.312-14.656 31.312-32.72V201.68c0-18.08-14.016-32.72-31.312-32.72H163.968c-17.28 0-31.312 14.656-31.312 32.72v433.632c0 18.08 14.016 32.72 31.312 32.72h43.936l176.96-231.728a35.2 35.2 0 0 1 23.28-13.12c9.056-1.072 17.92 1.92 25.536 8.224l74.96 65.52 130.512-149.52a112.016 112.016 0 0 1-6.56-37.248c0-58.848 45.28-103.888 100.832-103.888 55.712 0 100.816 45.2 100.816 103.888 0 58.848-53.008 102.912-100.816 102.912-17.472 0-33.44-3.248-48.08-12.08l-147.648 169.632c-12.384 14.176-33.168 11.888-47.328-0.32zM800 304c0-35.2-28.8-64-64-64s-64 28.8-64 64 28.8 64 64 64 64-28.8 64-64z" /></svg>