<?xml version="1.0" standalone="no"?><!DOCTYPE svg PUBLIC "-//W3C//DTD SVG 1.1//EN" "http://www.w3.org/Graphics/SVG/1.1/DTD/svg11.dtd"><svg class="icon" width="200px" height="200.00px" viewBox="0 0 1024 1024" version="1.1" xmlns="http://www.w3.org/2000/svg"><path d="M836.16 209.6a192.864 192.864 0 0 0-130.24-50.56c-49.28 0-98.88 18.88-136.64 56.64l-189.44 190.72a109.696 109.696 0 0 0 0.32 155.2l101.44 101.44c0.96 0.96 2.88 0.96 3.84 0l41.28-41.28c0.96-0.96 0.96-2.88 0-3.84l-88.32-88.32c-25.6-25.6-25.6-67.2 0-92.8l172.8-172.8c17.92-17.92 39.36-32 64-37.44 45.44-10.24 90.24 2.88 121.92 34.24 31.36 31.36 44.8 76.48 34.24 121.92-5.76 24.64-19.84 46.08-37.44 64l-37.12 37.12c-0.96 0.96-0.96 2.88 0 3.84l41.28 41.28c0.96 0.96 2.88 0.96 3.84 0l32.64-32.64c78.72-78.08 83.52-211.84 1.6-286.72z"  /><path  d="M187.84 877.44A192.864 192.864 0 0 0 318.08 928c49.28 0 98.88-18.88 136.64-56.64l189.44-190.72a109.696 109.696 0 0 0-0.32-155.2l-101.44-101.44a2.912 2.912 0 0 0-3.84 0l-41.28 41.28c-0.96 0.96-0.96 2.88 0 3.84l88.32 88.32c25.6 25.6 25.6 67.2 0 92.8l-172.8 172.8c-17.92 17.92-39.36 32-64 37.44-45.44 10.24-90.24-2.88-121.92-34.24-31.36-31.36-44.8-76.48-34.24-121.92 5.76-24.64 19.84-46.08 37.44-64l37.12-37.12c0.96-0.96 0.96-2.88 0-3.84l-41.28-41.28a2.912 2.912 0 0 0-3.84 0l-32.64 32.64c-78.72 78.4-83.52 211.84-1.6 286.72z"  /></svg>