<?xml version="1.0" standalone="no"?><!DOCTYPE svg PUBLIC "-//W3C//DTD SVG 1.1//EN" "http://www.w3.org/Graphics/SVG/1.1/DTD/svg11.dtd"><svg class="icon" width="200px" height="200.00px" viewBox="0 0 1024 1024" version="1.1" xmlns="http://www.w3.org/2000/svg"><path fill="#ffffff" d="M242.752 197.504L800.64 755.424l-45.248 45.248L197.504 242.752l45.248-45.248z m41.344 222.368l45.248 45.248-90.496 90.528a160 160 0 0 0 226.304 226.272l90.464-90.56 45.248 45.28-90.464 90.56a224 224 0 0 1-316.8-316.8l90.496-90.56z m135.776-135.776L510.4 193.6a224 224 0 1 1 316.8 316.8l-90.56 90.464-45.248-45.248 90.528-90.464a160 160 0 1 0-226.272-226.304l-90.56 90.496-45.216-45.248z"  /></svg>