<?xml version="1.0" standalone="no"?><!DOCTYPE svg PUBLIC "-//W3C//DTD SVG 1.1//EN" "http://www.w3.org/Graphics/SVG/1.1/DTD/svg11.dtd"><svg class="icon" width="200px" height="200.00px" viewBox="0 0 1024 1024" version="1.1" xmlns="http://www.w3.org/2000/svg"><path fill="#000000" d="M859.3 690.1H164.6c-15.4 0-29.5-8.2-36.8-21.4l-40.9-73.8c-10.2-18.5-35.7-26.4-55.3-29.7C13 562 0 547.8 0 530.7V368.6c0-19.1 15.8-34.7 35.3-34.7h953.4c19.5 0 35.3 15.6 35.3 34.7v162.1c0 18.3-14.5 33.4-32.8 34.6-28.3 5.3-46 14.9-54.1 29.5l-40.9 73.8c-7.3 13.3-21.4 21.5-36.9 21.5z m-2.2-42.9z m-691.2-1.6H858l40.1-72.3c14.5-26.1 41.1-42.9 81.4-51V378.4h-935v143.8c39.6 7.8 66.9 24.9 81.3 51l40.1 72.4z"  /><path fill="#000000" d="M133.6 445.2h756.9c12.3 0 22.3 10 22.3 22.3s-10 22.3-22.3 22.3H133.6c-12.3 0-22.3-10-22.3-22.3s10-22.3 22.3-22.3z"  /></svg>