<?xml version="1.0" standalone="no"?><!DOCTYPE svg PUBLIC "-//W3C//DTD SVG 1.1//EN" "http://www.w3.org/Graphics/SVG/1.1/DTD/svg11.dtd"><svg class="icon" width="200px" height="200.00px" viewBox="0 0 1024 1024" version="1.1" xmlns="http://www.w3.org/2000/svg"><path d="M801.984 313.856a746.709333 746.709333 0 0 0-323.946667 0l-107.349333 23.850667-12.096 72.576a618.666667 618.666667 0 0 0 0 203.434666l12.096 72.576 107.349333 23.850667a746.709333 746.709333 0 0 0 323.946667 0l107.349333-23.850667 12.096-72.576a618.666667 618.666667 0 0 0 0-203.434666l-12.096-72.576-107.349333-23.850667z m-333.226667-41.664a789.333333 789.333333 0 0 1 342.485334 0l121.386666 26.986667a21.333333 21.333333 0 0 1 16.426667 17.322666l14.464 86.784a661.333333 661.333333 0 0 1 0 217.429334l-14.464 86.784a21.333333 21.333333 0 0 1-16.426667 17.322666l-121.386666 26.986667a789.333333 789.333333 0 0 1-342.464 0l-121.386667-26.986667a21.333333 21.333333 0 0 1-16.426667-17.322666l-14.464-86.784a661.333333 661.333333 0 0 1 0-217.429334l14.464-86.784a21.333333 21.333333 0 0 1 16.426667-17.322666l121.386667-26.986667z"  /><path d="M42.666667 490.666667h533.333333v42.666666H42.666667v-42.666666z"  /><path d="M537.536 512l-101.376-67.584 23.68-35.498667 128 85.333334a21.333333 21.333333 0 0 1 0 35.498666l-128 85.333334-23.68-35.498667L537.536 512z"  /></svg>