<?xml version="1.0" standalone="no"?><!DOCTYPE svg PUBLIC "-//W3C//DTD SVG 1.1//EN" "http://www.w3.org/Graphics/SVG/1.1/DTD/svg11.dtd"><svg class="icon" width="200px" height="200.00px" viewBox="0 0 1024 1024" version="1.1" xmlns="http://www.w3.org/2000/svg"><path fill="#000000" d="M954.88 165.376h-890.88C28.672 165.376 0 194.048 0 229.376v597.504c0 35.328 28.672 64 64 64h890.88c35.328 0 64-28.672 64-64V229.376c0-35.328-28.672-64-64-64z m39.424 687.616H24.576v-650.24h969.728v650.24z"  /><path fill="#000000" d="M285.184 646.144h97.792v-35.84H285.184c-23.04 0-39.936-5.632-49.152-16.384-8.704-9.728-12.8-25.6-12.8-47.104V391.68h-35.84v159.232c0 31.232 7.168 54.784 21.504 70.144 16.384 16.384 41.472 25.088 76.288 25.088zM507.904 646.144H604.16v-35.84H507.904c-25.088 0-42.496-5.12-51.712-15.36-9.216-10.24-13.824-29.696-13.824-57.856v-3.584h153.088v-35.328H442.368V427.52H604.16v-35.84H406.528v144.896c0 39.936 7.168 68.096 22.528 84.992 15.36 16.384 41.472 24.576 78.848 24.576zM864.768 518.656c0-84.48-39.936-126.976-120.32-126.976h-117.248v254.464h117.248c80.384 0 120.32-42.496 120.32-127.488z m-201.216-91.136h80.896c25.6 0 45.056 4.608 57.344 14.336 17.92 13.824 27.136 39.424 27.136 76.8s-9.216 62.976-27.136 76.8c-12.8 9.728-32.256 14.848-57.344 14.848h-80.896V427.52z"  /></svg>