<?xml version="1.0" standalone="no"?><!DOCTYPE svg PUBLIC "-//W3C//DTD SVG 1.1//EN" "http://www.w3.org/Graphics/SVG/1.1/DTD/svg11.dtd"><svg class="icon" width="200px" height="200.00px" viewBox="0 0 1024 1024" version="1.1" xmlns="http://www.w3.org/2000/svg"><path  d="M640.512 806.912H382.976c-12.8 0-23.04-10.24-23.04-23.04s10.24-23.04 23.04-23.04h257.536c12.8 0 23.04 10.24 23.04 23.04 0 12.288-10.24 23.04-23.04 23.04zM834.56 700.416H188.928c-22.016 0-39.936-17.92-39.936-39.936V230.912c0-22.016 17.92-39.936 39.936-39.936H834.56c22.016 0 39.936 17.92 39.936 39.936v429.056c0.512 22.016-17.408 40.448-39.936 40.448z m-636.416-49.664h627.2V240.64H198.144v410.112z"  /></svg>