<?xml version="1.0" standalone="no"?><!DOCTYPE svg PUBLIC "-//W3C//DTD SVG 1.1//EN" "http://www.w3.org/Graphics/SVG/1.1/DTD/svg11.dtd"><svg t="1764658535362" class="icon" viewBox="0 0 1024 1024" version="1.1" xmlns="http://www.w3.org/2000/svg" p-id="5512" xmlns:xlink="http://www.w3.org/1999/xlink" width="200" height="200"><path d="M109.216 169.568l60.352-60.352 746.688 746.688-60.352 60.352L109.216 169.568zM469.344 778.656L315.744 640H192v-256h21.344V298.656H151.488c-25.6 0-44.8 19.2-44.8 44.8v337.056c0 25.6 19.2 44.8 44.8 44.8h130.144l198.4 177.056c8.544 8.544 19.2 10.656 29.856 10.656 6.4 0 12.8-2.144 19.2-4.256 17.056-6.4 25.6-23.456 25.6-40.544v-206.944h-85.344v117.344zM659.2 539.744l78.944 32C768 497.088 742.4 403.2 669.888 332.8l-59.744 59.744c40.544 36.256 70.4 98.144 49.056 147.2zM795.744 663.456l76.8 36.256c83.2-170.656 51.2-358.4-81.056-490.656L731.744 268.8c106.656 108.8 132.256 256 64 394.656zM469.344 245.344v117.344h85.344V153.632c0-17.056-10.656-34.144-25.6-40.544-17.056-6.4-36.256-4.256-49.056 8.544l-102.4 91.744 57.6 64 34.144-32z" p-id="5513"></path></svg>