<?xml version="1.0" standalone="no"?><!DOCTYPE svg PUBLIC "-//W3C//DTD SVG 1.1//EN" "http://www.w3.org/Graphics/SVG/1.1/DTD/svg11.dtd"><svg t="1764658561917" class="icon" viewBox="0 0 1024 1024" version="1.1" xmlns="http://www.w3.org/2000/svg" p-id="6551" xmlns:xlink="http://www.w3.org/1999/xlink" width="200" height="200"><path d="M869.472578 920.128281 154.906046 920.128281c-31.943526 0-60.545958-16.517185-76.514651-44.181245-15.968693-27.666106-15.96153-60.696384 0.016373-88.355327l357.283266-618.47194c15.971763-27.647687 44.568055-44.152593 76.496232-44.152593 31.930223-0.001023 60.527538 16.504906 76.499301 44.151569l357.283266 618.472963c15.977903 27.659967 15.984043 60.689221 0.017396 88.355327C930.018535 903.611096 901.416104 920.128281 869.472578 920.128281zM512.187265 169.139212c-15.962553 0-30.261211 8.251941-38.247092 22.075785l0 0L116.65793 809.686936c-7.989975 13.829983-7.993045 30.345122-0.008186 44.179199 7.983835 13.83203 22.285562 22.090111 38.257326 22.090111l714.566532 0c15.971763 0 30.273491-8.258081 38.256302-22.090111 7.984858-13.83203 7.980765-30.349215-0.008186-44.179199L550.437427 191.213973C542.452569 177.391153 528.152888 169.138188 512.187265 169.139212z" fill="#272636" p-id="6552"></path><path d="M513.732457 621.119233c-18.296715 0-33.257451-14.832823-33.257451-33.129538L480.475006 331.789639c0-18.296715 14.960737-33.129538 33.257451-33.129538 18.296715 0 33.257451 14.832823 33.257451 33.129538l0 256.200056C546.989909 606.28641 532.029172 621.119233 513.732457 621.119233z" fill="#272636" p-id="6553"></path><path d="M513.686409 737.619574m-49.991578 0a48.853 48.853 0 1 0 99.983155 0 48.853 48.853 0 1 0-99.983155 0Z" fill="#272636" p-id="6554"></path></svg>