<?xml version="1.0" standalone="no"?><!DOCTYPE svg PUBLIC "-//W3C//DTD SVG 1.1//EN" "http://www.w3.org/Graphics/SVG/1.1/DTD/svg11.dtd"><svg t="1764659010471" class="icon" viewBox="0 0 1024 1024" version="1.1" xmlns="http://www.w3.org/2000/svg" p-id="6706" xmlns:xlink="http://www.w3.org/1999/xlink" width="200" height="200"><path d="M889.8 886.6H134.2c-25.8 0-48.8-13.3-61.7-35.6-12.9-22.3-12.9-49 0-71.3l377.8-654.4c12.9-22.3 36-35.6 61.7-35.6s48.8 13.3 61.7 35.6l377.8 654.4c12.9 22.3 12.9 49 0 71.3-12.9 22.3-35.9 35.6-61.7 35.6zM512 153c-2.1 0-5 0.7-6.9 4L127.3 811.4c-1.9 3.3-1.1 6.1 0 7.9 1 1.8 3.1 4 6.9 4h755.6c3.8 0 5.8-2.1 6.9-4 1.1-1.8 1.9-4.7 0-7.9L518.9 157c-1.9-3.3-4.8-4-6.9-4z m-34.3-11.8h0.3-0.3z" fill="#000000" p-id="6707"></path><path d="M512 615.1c-17.5 0-31.7-14.2-31.7-31.7V370.1c0-17.5 14.2-31.7 31.7-31.7s31.7 14.2 31.7 31.7v213.3c0 17.5-14.2 31.7-31.7 31.7zM484.9 767.7c-17.2 0-31.3-13.8-31.7-31-0.4-17.5 13.5-32 31-32.3l53-1.1c17 0 32 13.5 32.3 31 0.4 17.5-13.5 32-31 32.3l-53 1.1h-0.6z" fill="#000000" p-id="6708"></path></svg>