<?xml version="1.0" standalone="no"?><!DOCTYPE svg PUBLIC "-//W3C//DTD SVG 1.1//EN" "http://www.w3.org/Graphics/SVG/1.1/DTD/svg11.dtd"><svg class="icon" width="200px" height="200.00px" viewBox="0 0 1024 1024" version="1.1" xmlns="http://www.w3.org/2000/svg"><path  d="M914.88 212.352c0-54.464-44.16-98.624-98.624-98.624L232.192 113.728 232.192 85.312l2.88 0C241.856 53.12 269.056 28.416 303.296 28.416c5.056 0 9.472 1.856 14.208 2.88l0 11.328 26.24 0c0.832 0.576 1.408 1.344 2.24 1.984L345.984 42.688l56.896 0L402.88 0 317.504 0l0 14.208L289.088 14.208l0 2.88C249.024 24.064 217.984 57.472 217.984 99.584l0 14.208L217.024 113.792c-54.464 0-98.624 44.096-98.624 98.624l-56.896 257.92c0 54.464 29.952 98.56 84.352 98.56l299.648 0L445.504 774.4c-92.928 16.32-142.208 64.256-142.208 121.6 0 70.656 95.552 128 213.312 128s213.312-57.344 213.312-128c0-57.152-50.944-104.96-142.208-121.344L587.712 568.896l299.648 0c54.464 0 84.352-44.096 84.352-98.56L914.88 212.352zM331.776 14.208l56.896 0 0 14.208L331.776 28.416 331.776 14.208zM687.296 896c0 47.104-83.2 85.312-170.688 85.312-87.552 0-170.688-38.208-170.688-85.312 0-35.52 36.032-65.856 99.52-78.72l0 36.032c0 4.224 2.048 7.808 4.992 10.432 10.048 27.008 35.584 46.528 66.176 46.528s56.128-19.52 66.112-46.528c3.008-2.624 4.992-6.208 4.992-10.432L587.712 817.28C651.648 830.08 687.296 860.416 687.296 896zM488.192 839.104 488.192 568.896l56.896 0 0 270.272c0 15.68-12.736 28.416-28.416 28.416S488.192 854.784 488.192 839.104zM887.36 526.208 145.856 526.208c-23.04 0-41.664-18.688-41.664-41.664l56.896-286.4c0-22.976 32.896-41.664 55.936-41.664l0.96 0 0 29.312c-16.128 1.984-28.48 10.176-28.48 20.48 0 11.776 15.936 21.312 35.584 21.312 19.648 0 35.584-9.536 35.584-21.312 0-10.304-12.288-18.432-28.416-20.48L232.256 156.416l584.064 0c23.04 0 55.936 18.688 55.936 41.664l56.896 286.4C929.088 507.584 910.4 526.208 887.36 526.208z"  /></svg>