<?xml version="1.0" standalone="no"?><!DOCTYPE svg PUBLIC "-//W3C//DTD SVG 1.1//EN" "http://www.w3.org/Graphics/SVG/1.1/DTD/svg11.dtd"><svg class="icon" width="200px" height="200.00px" viewBox="0 0 1024 1024" version="1.1" xmlns="http://www.w3.org/2000/svg"><path d="M329.614222 209.180444l59.335111 43.178667c-4.266667 2.730667-24.177778 18.204444-59.733333 46.307556H158.72a29.582222 29.582222 0 0 0-29.070222 26.510222l-0.227556 3.470222v360.448c0 15.36 11.377778 28.103111 25.884445 29.809778l3.413333 0.227555h164.124444a11.377778 11.377778 0 0 1 6.428445 1.991112l279.722667 191.431111a11.377778 11.377778 0 0 0 17.806222-9.386667V425.984l87.779555 64.113778v434.631111c0 49.777778-39.253333 90.112-87.779555 90.112-17.351111 0-34.247111-5.233778-48.696889-15.132445l-275.342222-188.472888a11.377778 11.377778 0 0 0-6.485334-1.991112H158.72c-64.625778 0-117.020444-53.76-117.020444-120.149333V328.647111c0-62.065778 45.852444-113.208889 104.675555-119.466667 52.565333-0.568889 93.752889-0.967111 123.733333-1.080888h23.893334c23.153778 0.113778 35.100444 0.455111 35.669333 1.137777z" /><path d="M699.733333 40.106667c9.671111 14.791111 14.791111 32.199111 14.791111 49.948444v419.783111a11.377778 11.377778 0 0 1-19.569777 7.964445l-65.024-66.787556a11.377778 11.377778 0 0 1-3.185778-7.964444V111.729778a11.377778 11.377778 0 0 0-17.806222-9.386667l-279.779556 191.146667c-4.551111 3.128889-81.066667-59.960889-78.279111-61.838222L578.048 15.132444a86.357333 86.357333 0 0 1 121.742222 25.031112V40.106667z" /><path d="M799.061333 187.790222l58.993778-29.468444a11.377778 11.377778 0 0 1 15.189333 5.233778c0.056889 0.170667 0.170667 0.341333 0.113778 0.512 51.427556 114.915556 77.141333 232.220444 77.141334 351.914666 1.080889 122.481778-24.689778 242.460444-77.255112 359.992889a11.491556 11.491556 0 0 1-15.530666 5.290667l-58.652445-29.127111a11.377778 11.377778 0 0 1-5.176889-14.791111c47.160889-104.334222 69.973333-211.456 68.437334-321.422223a748.430222 748.430222 0 0 0-68.437334-313.400889 11.377778 11.377778 0 0 1 5.12-14.734222z" /><path d="M956.245333 108.771556l60.188445-30.378667a11.264 11.264 0 0 1 15.36 5.404444c62.122667 140.401778 93.240889 284.103111 93.240889 431.274667 1.080889 150.471111-29.980444 296.903111-93.297778 439.296a11.377778 11.377778 0 0 1-15.303111 5.632l-59.904-29.127111a11.207111 11.207111 0 0 1-5.461334-14.677333c58.709333-132.096 87.324444-265.841778 85.788445-401.066667 0.170667-132.949333-28.444444-263.566222-85.788445-391.793778a11.264 11.264 0 0 1 5.12-14.563555z" /></svg>